<svg width="150" height="149" viewBox="0 0 150 149" fill="none" xmlns="http://www.w3.org/2000/svg">
<ellipse cx="75" cy="73.5034" rx="74" ry="73.5034" fill="#A5EEFF"/>
<ellipse cx="75" cy="75.1739" rx="74" ry="11.6937" fill="white"/>
<ellipse cx="74.1778" cy="74.3386" rx="53.4444" ry="5.84686" fill="#8D4E2D" fill-opacity="0.75"/>
<path d="M46.2909 25.058C61.0909 27.8422 87.402 42.0974 74.2464 76.8444C60.5427 72.9465 35.7664 57.1321 46.2909 25.058Z" fill="#406601" stroke="#406601"/>
<path d="M99.4201 46.651C101.444 56.4164 99.2914 76.2378 74.4915 77.4007C73.4333 68.0097 76.9376 48.7122 99.4201 46.651Z" fill="#406601" stroke="#406601"/>
<g opacity="0.5">
<path d="M75.0051 76.7481L77.2386 77.2747L83.8853 63.6066L75.0051 76.7481Z" fill="#0E0D0D"/>
<path d="M84.4896 62.3641L83.8853 63.6066M83.8853 63.6066L77.2386 77.2747L75.0051 76.7481L83.8853 63.6066Z" stroke="#0E0D0D" stroke-width="0.5"/>
</g>
<path opacity="0.5" d="M76.7811 76.6922C77.3596 73.5808 68.8273 60.3571 64.4889 54.1342L73.8888 76.6922H76.7811Z" fill="#0E0D0D" stroke="#0E0D0D"/>
<path d="M1 77.8377C1 159.107 137.749 182.913 149 77.8377C131.113 84.1313 76.4713 92.9423 1 77.8377Z" fill="#8D4E2D" stroke="#946C57" stroke-width="0.5"/>
<ellipse cx="13.6889" cy="89.3734" rx="2.46667" ry="2.5058" fill="#453234"/>
<ellipse cx="18.6222" cy="99.3966" rx="2.46667" ry="2.5058" fill="#453234"/>
<ellipse cx="23.5555" cy="89.3734" rx="2.46667" ry="2.5058" fill="#453234"/>
</svg>
